<?xml version="1.0" encoding="UTF-8" standalone="no"?>
<svg
   id="Layer_2"
   data-name="Layer 2"
   viewBox="0 0 1840 512"
   version="1.1"
   width="1840"
   height="512"
   xmlns="http://www.w3.org/2000/svg"
   xmlns:svg="http://www.w3.org/2000/svg">
  <defs
     id="defs1" />
  <g
     id="Layer_1-2"
     data-name="Layer 1"
     transform="matrix(0.84108967,0,0,0.84108967,709.76924,45.672911)">
    <path
       d="m 383.11,250.07 v 0 c 0,-3.47 2.62,-6.43 6.08,-6.74 C 451.27,237.67 499.9,185.48 499.9,121.93 499.9,58.38 448.26,3 383.47,0.13 381.65,0.05 379.82,0 377.98,0 c -1.84,0 -3.67,0.05 -5.49,0.13 H 0 v 500 h 376.65 c 67.33,0 123.52,-55.09 123.25,-122.42 -0.25,-63.31 -48.77,-115.24 -110.67,-120.9 -3.47,-0.32 -6.12,-3.25 -6.12,-6.74 z M 156.96,157.63 h 185 v 185 h -185 z"
       id="path1" />
  </g>
</svg>
